<svg xmlns="http://www.w3.org/2000/svg" width="600" height="400" viewBox="0 0 600 400"><rect width="100%" height="100%" fill="#e9ecef"/><path fill="#788195" d="M176.24 165.12h8.12v57.84h-9.48V185.6q0-2.24.24-4.84l-17.48 32.84q-1.24 2.36-3.8 2.36h-1.52q-2.56 0-3.8-2.36l-17.68-32.96q.12 1.32.2 2.6t.08 2.36v37.36h-9.48v-57.84h8.12q.72 0 1.24.04t.94.2.76.52.66.96l17.32 32.12q.68 1.28 1.26 2.64t1.14 2.8q.56-1.48 1.16-2.86t1.28-2.66l17.08-32.04q.32-.6.68-.96t.78-.52.94-.2 1.24-.04m41.12 47.24v-6.92q-4.28.2-7.2.74t-4.68 1.38-2.52 1.96-.76 2.44q0 2.6 1.54 3.72t4.02 1.12q3.04 0 5.26-1.1t4.34-3.34m-20.88-21.56-1.76-3.16q7.08-6.48 17.04-6.48 3.6 0 6.44 1.18t4.8 3.28 2.98 5.02 1.02 6.4v25.92h-4.48q-1.4 0-2.16-.42t-1.2-1.7l-.88-2.96q-1.56 1.4-3.04 2.46t-3.08 1.78-3.42 1.1-4.02.38q-2.6 0-4.8-.7t-3.8-2.1-2.48-3.48-.88-4.84q0-1.56.52-3.1t1.7-2.94 3.06-2.64 4.62-2.16 6.38-1.5 8.32-.7v-2.4q0-4.12-1.76-6.1t-5.08-1.98q-2.4 0-3.98.56t-2.78 1.26-2.18 1.26-2.18.56q-1.04 0-1.76-.54t-1.16-1.26m49.68 3.12v18.4q1.68 2.04 3.66 2.88t4.3.84q2.24 0 4.04-.84t3.06-2.56 1.94-4.34.68-6.18q0-3.6-.58-6.1t-1.66-4.06-2.62-2.28-3.5-.72q-3.08 0-5.24 1.3t-4.08 3.66m-1.32-10.2.8 3.8q2.52-2.84 5.72-4.6t7.52-1.76q3.36 0 6.14 1.4t4.8 4.06 3.12 6.56 1.1 8.94q0 4.6-1.24 8.52t-3.54 6.8-5.56 4.5-7.3 1.62q-3.44 0-5.88-1.06t-4.36-2.94v16.8h-9.88v-54.44h6.04q1.92 0 2.52 1.8m98.76-18.6h8.68l-23.36 57.84h-9.72l-23.36-57.84h8.64q1.4 0 2.28.68t1.32 1.76l13.64 35.28q.68 1.72 1.3 3.78t1.18 4.3q.48-2.24 1.04-4.3t1.24-3.78l13.56-35.28q.32-.92 1.26-1.68t2.3-.76m13.44 16.8h9.92v41.04h-9.92zm11.28-11.96q0 1.28-.52 2.4t-1.38 1.96-2.02 1.34-2.48.5q-1.28 0-2.42-.5t-1.98-1.34-1.34-1.96-.5-2.4q0-1.32.5-2.48t1.34-2 1.98-1.34 2.42-.5q1.32 0 2.48.5t2.02 1.34 1.38 2 .52 2.48m16.52 27.76h18.64q0-1.92-.54-3.62t-1.62-2.98-2.74-2.02-3.86-.74q-4.28 0-6.74 2.44t-3.14 6.92m25.2 5.96h-25.4q.24 3.16 1.12 5.46t2.32 3.8 3.42 2.24 4.38.74 4.14-.56 3.04-1.24 2.28-1.24 1.9-.56q1.24 0 1.84.92l2.84 3.6q-1.64 1.92-3.68 3.22t-4.26 2.08-4.52 1.1-4.46.32q-4.28 0-7.96-1.42t-6.4-4.2-4.28-6.88-1.56-9.5q0-4.2 1.36-7.9t3.9-6.44 6.2-4.34 8.26-1.6q3.88 0 7.16 1.24t5.64 3.62 3.7 5.84 1.34 7.9q0 2.24-.48 3.02t-1.84.78m60.8-21.76h7.52l-13.04 41.04h-7.92q-1.36 0-1.88-1.76l-7.36-23.72q-.36-1.2-.66-2.38t-.5-2.38q-.24 1.2-.54 2.42t-.66 2.42l-7.48 23.64q-.48 1.76-2.12 1.76h-7.6l-13-41.04h7.88q1.08 0 1.84.52t1 1.32l5.88 21.92q.44 1.8.78 3.52t.58 3.44q.44-1.72.94-3.44t1.06-3.52l6.8-22q.24-.8.94-1.32t1.7-.52h4.36q1.04 0 1.78.52t.98 1.32l6.6 22q.52 1.8.98 3.54t.9 3.46q.52-3.4 1.48-7l6.04-21.92q.28-.8 1-1.32t1.72-.52"/></svg>