<svg xmlns="http://www.w3.org/2000/svg" width="600" height="400" viewBox="0 0 600 400"><rect width="100%" height="100%" fill="#e9ecef"/><path fill="#788195" d="M127.58 195.325h5.32q1.96 0 3.42-.49t2.43-1.41q.96-.91 1.44-2.22.48-1.32.48-2.93 0-1.54-.48-2.78-.48-1.25-1.43-2.12-.95-.88-2.41-1.34-1.46-.47-3.45-.47h-5.32zm-7.13-19.27h12.45q3.85 0 6.65.9 2.81.9 4.64 2.52t2.72 3.87.89 4.93q0 2.78-.93 5.1t-2.78 3.99q-1.86 1.67-4.65 2.59-2.8.93-6.54.93h-5.32v13.49h-7.13zm37.55 12.77.4 3.08q1.27-2.44 3.02-3.83t4.13-1.39q1.88 0 3.02.82l-.42 4.9q-.13.48-.39.68-.25.2-.67.2-.4 0-1.18-.14-.78-.13-1.53-.13-1.08 0-1.93.32t-1.52.91q-.68.6-1.2 1.45-.51.85-.96 1.93v16.75h-6.55v-27.19h3.84q1.01 0 1.41.36t.53 1.28m26.02-2.06q3.02 0 5.5.98t4.24 2.78 2.72 4.4q.95 2.6.95 5.8 0 3.24-.95 5.83-.96 2.6-2.72 4.43t-4.24 2.81-5.5.98q-3.05 0-5.54-.98t-4.25-2.81-2.73-4.43q-.97-2.59-.97-5.83 0-3.2.97-5.8t2.73-4.4 4.25-2.78 5.54-.98m0 22.97q3.39 0 5.02-2.28t1.63-6.67q0-4.4-1.63-6.71-1.63-2.3-5.02-2.3-3.44 0-5.1 2.31-1.66 2.32-1.66 6.7 0 4.37 1.66 6.66t5.1 2.29m24.96-14.6v12.19q1.12 1.35 2.43 1.91t2.85.56q1.48 0 2.67-.56 1.2-.56 2.03-1.7.84-1.14 1.29-2.87.45-1.74.45-4.1 0-2.38-.39-4.04-.38-1.65-1.1-2.69-.71-1.03-1.73-1.51-1.02-.47-2.32-.47-2.04 0-3.47.86t-2.71 2.42m-.87-6.76.53 2.52q1.67-1.88 3.79-3.05 2.12-1.16 4.98-1.16 2.23 0 4.07.92 1.84.93 3.18 2.69 1.34 1.77 2.07 4.35.72 2.58.72 5.92 0 3.05-.82 5.65t-2.34 4.5q-1.53 1.91-3.69 2.98-2.16 1.08-4.83 1.08-2.28 0-3.9-.7-1.61-.71-2.89-1.95v11.13h-6.54v-36.07h4q1.27 0 1.67 1.19m29.6 9.28h12.35q0-1.27-.36-2.4t-1.07-1.97q-.72-.85-1.82-1.34t-2.55-.49q-2.84 0-4.47 1.61-1.63 1.62-2.08 4.59m16.7 3.95h-16.83q.16 2.09.74 3.61.58 1.53 1.54 2.52.95 1 2.26 1.49t2.9.49 2.75-.38q1.15-.37 2.01-.82t1.51-.82 1.26-.37q.82 0 1.22.61l1.88 2.39q-1.09 1.27-2.44 2.13t-2.82 1.38q-1.47.51-2.99.73-1.53.21-2.96.21-2.83 0-5.27-.94t-4.24-2.79q-1.8-1.84-2.84-4.55-1.03-2.72-1.03-6.3 0-2.78.9-5.23t2.58-4.27q1.69-1.81 4.11-2.87 2.43-1.06 5.47-1.06 2.57 0 4.75.82 2.17.82 3.73 2.4 1.57 1.57 2.45 3.87.89 2.29.89 5.23 0 1.48-.32 2-.31.52-1.21.52m12.21-12.78.4 3.08q1.27-2.44 3.02-3.83t4.13-1.39q1.89 0 3.03.82l-.43 4.9q-.13.48-.38.68t-.68.2q-.4 0-1.18-.14-.78-.13-1.52-.13-1.09 0-1.94.32-.84.32-1.52.91-.68.6-1.19 1.45-.52.85-.97 1.93v16.75h-6.55v-27.19h3.85q1 0 1.4.36t.53 1.28m23.06 25.97q-3.55 0-5.45-2-1.89-2-1.89-5.52v-15.19h-2.79q-.53 0-.9-.34-.37-.35-.37-1.03v-2.6l4.37-.72 1.38-7.42q.13-.53.51-.82.37-.29.95-.29h3.39v8.56h7.26v4.66h-7.26v14.74q0 1.27.62 1.99.63.71 1.71.71.61 0 1.02-.15.41-.14.72-.3.3-.16.54-.3.24-.15.48-.15.29 0 .48.15.18.14.39.43l1.97 3.18q-1.44 1.2-3.29 1.8-1.86.61-3.84.61m30.1-27.61h5.25l-14.82 34.66q-.29.69-.75 1.05t-1.42.36h-4.87l5.08-10.92-10.99-25.15h5.75q.76 0 1.2.37t.65.85l5.78 14.1q.29.71.49 1.43.2.71.38 1.46.24-.75.48-1.47.24-.73.53-1.45l5.46-14.07q.21-.53.7-.87.49-.35 1.1-.35m29.57-11.13v38.32h-7.15v-38.32zm14.08 38.32h-6.55v-27.19h4q1.27 0 1.67 1.19l.43 2.02q.71-.8 1.49-1.46t1.67-1.14 1.91-.75q1.02-.28 2.24-.28 2.57 0 4.23 1.39 1.65 1.39 2.47 3.7.64-1.36 1.59-2.32.96-.97 2.1-1.58t2.42-.9q1.29-.29 2.59-.29 2.25 0 4 .69t2.94 2.01 1.81 3.23q.63 1.91.63 4.38v17.3h-6.55v-17.3q0-2.6-1.14-3.91t-3.34-1.31q-1 0-1.86.34-.87.34-1.52.99-.64.65-1.02 1.63-.37.98-.37 2.26v17.3h-6.57v-17.3q0-2.73-1.1-3.98-1.1-1.24-3.22-1.24-1.43 0-2.66.7t-2.29 1.92zm52.2-7.02v-4.59q-2.83.14-4.77.49-1.93.36-3.1.92-1.17.55-1.67 1.3-.5.74-.5 1.61 0 1.73 1.02 2.47t2.66.74q2.02 0 3.49-.73t2.87-2.21m-13.83-14.29-1.17-2.09q4.69-4.29 11.29-4.29 2.39 0 4.27.78t3.18 2.17 1.97 3.33q.68 1.93.68 4.24v17.17h-2.97q-.93 0-1.43-.28t-.8-1.12l-.58-1.97q-1.03.93-2.01 1.63-.98.71-2.04 1.18-1.06.48-2.27.73t-2.66.25q-1.73 0-3.18-.46-1.46-.46-2.52-1.39t-1.64-2.31q-.59-1.37-.59-3.2 0-1.04.35-2.06.34-1.02 1.12-1.94.79-.93 2.03-1.75 1.25-.82 3.06-1.43 1.82-.61 4.23-1 2.41-.38 5.51-.46v-1.59q0-2.73-1.16-4.04-1.17-1.31-3.37-1.31-1.59 0-2.64.37-1.04.37-1.84.83l-1.44.84q-.65.37-1.45.37-.69 0-1.16-.36-.48-.36-.77-.84m36.3 7.05q1.22 0 2.12-.33t1.5-.91q.6-.59.9-1.41.31-.82.31-1.8 0-2.01-1.21-3.19t-3.62-1.18-3.61 1.18q-1.21 1.18-1.21 3.19 0 .96.31 1.78.3.82.9 1.41.59.6 1.51.93.91.33 2.1.33m7.4 15.48q0-.8-.48-1.3t-1.3-.78-1.92-.41-2.33-.2-2.55-.12q-1.31-.05-2.55-.21-1.09.61-1.77 1.43-.67.82-.67 1.91 0 .71.36 1.34.35.62 1.14 1.07.78.45 2.02.7 1.25.25 3.05.25 1.83 0 3.15-.28 1.33-.27 2.19-.76t1.26-1.17.4-1.47m-1.3-27.48h7.82v2.44q0 1.16-1.41 1.43l-2.44.45q.56 1.4.56 3.07 0 2.02-.81 3.65t-2.24 2.76q-1.43 1.14-3.38 1.77-1.94.62-4.2.62-.79 0-1.53-.08-.75-.08-1.46-.21-1.27.77-1.27 1.72 0 .82.75 1.21.76.38 2 .54 1.25.16 2.84.2t3.26.17 3.26.46q1.59.34 2.83 1.05 1.25.72 2 1.95.76 1.23.76 3.17 0 1.8-.89 3.49-.89 1.7-2.57 3.03-1.68 1.32-4.13 2.13t-5.58.81q-3.08 0-5.35-.6-2.28-.6-3.79-1.59t-2.26-2.29q-.74-1.3-.74-2.71 0-1.9 1.15-3.19 1.16-1.28 3.17-2.05-1.09-.56-1.72-1.49-.64-.92-.64-2.43 0-.61.23-1.26.22-.65.66-1.29.44-.63 1.1-1.2t1.56-1.02q-2.06-1.12-3.24-2.97-1.18-1.86-1.18-4.35 0-2.01.81-3.64.8-1.63 2.25-2.78 1.44-1.16 3.42-1.77 1.97-.61 4.3-.61 1.75 0 3.29.36t2.81 1.05m17.12 9.54h12.35q0-1.27-.36-2.4t-1.07-1.97q-.72-.85-1.82-1.34t-2.56-.49q-2.83 0-4.46 1.61-1.63 1.62-2.08 4.59m16.69 3.95h-16.83q.16 2.09.75 3.61.58 1.53 1.53 2.52.96 1 2.27 1.49t2.9.49 2.74-.38q1.16-.37 2.02-.82t1.51-.82 1.26-.37q.82 0 1.22.61l1.88 2.39q-1.09 1.27-2.44 2.13t-2.82 1.38q-1.47.51-3 .73-1.52.21-2.95.21-2.84 0-5.28-.94-2.43-.94-4.24-2.79-1.8-1.84-2.83-4.55-1.03-2.72-1.03-6.3 0-2.78.9-5.23t2.58-4.27q1.68-1.81 4.11-2.87 2.42-1.06 5.47-1.06 2.57 0 4.74.82 2.18.82 3.74 2.4 1.56 1.57 2.45 3.87.89 2.29.89 5.23 0 1.48-.32 2t-1.22.52"/></svg>