<svg xmlns="http://www.w3.org/2000/svg" width="80" height="80" viewBox="0 0 80 80"><rect width="100%" height="100%" fill="#DDDDDD"/><path fill="#999999" d="M23.74 45.725q.9 0 1.61-.29.7-.3 1.19-.84.48-.54.74-1.32.26-.77.26-1.72v-9.96h3.09v9.96q0 1.48-.48 2.74t-1.37 2.18q-.89.91-2.16 1.42-1.28.51-2.88.51-1.61 0-2.89-.51-1.27-.51-2.16-1.42-.89-.92-1.37-2.18t-.48-2.74v-9.96h3.09v9.95q0 .95.26 1.72t.75 1.32 1.2.85q.7.29 1.6.29m17.78-8.02-.64 1.02q-.12.19-.25.26-.12.07-.32.07t-.44-.11q-.24-.12-.55-.26t-.7-.26q-.4-.11-.94-.11-.84 0-1.32.35-.48.36-.48.93 0 .38.25.64t.66.46q.41.19.92.35.52.15 1.06.34.53.18 1.05.42.52.23.92.6.41.36.66.86.25.51.25 1.22 0 .85-.31 1.57-.3.72-.9 1.24-.6.53-1.48.82t-2.03.29q-.61 0-1.19-.11-.58-.1-1.11-.3-.54-.2-.99-.46-.46-.26-.8-.57l.65-1.09q.13-.19.3-.3.17-.1.44-.1.26 0 .5.15.23.15.55.32.31.18.73.32.42.15 1.06.15.51 0 .87-.12t.6-.31q.23-.2.34-.46t.11-.53q0-.42-.25-.68-.24-.26-.65-.46t-.93-.35q-.53-.16-1.07-.34-.55-.18-1.07-.43-.53-.25-.93-.63-.41-.38-.66-.93t-.25-1.33q0-.73.29-1.38.29-.66.85-1.15.55-.49 1.39-.78.83-.29 1.92-.29 1.22 0 2.22.4t1.67 1.06m4.51 3.26h5.36q0-.55-.16-1.04-.15-.49-.46-.85-.31-.37-.79-.58-.48-.22-1.11-.22-1.23 0-1.94.7-.71.71-.9 1.99m7.24 1.72h-7.3q.07.91.32 1.57.26.66.67 1.09t.98.64q.57.22 1.26.22t1.19-.17q.5-.16.88-.35.37-.2.65-.36t.55-.16q.35 0 .53.27l.81 1.03q-.47.55-1.05.93-.59.37-1.23.59-.64.23-1.3.32t-1.28.09q-1.23 0-2.29-.41-1.06-.4-1.84-1.2t-1.23-1.98-.45-2.73q0-1.21.39-2.27.39-1.07 1.12-1.86.73-.78 1.79-1.24 1.05-.46 2.37-.46 1.12 0 2.06.35.94.36 1.62 1.04.68.69 1.06 1.68.39 1 .39 2.27 0 .65-.14.87-.14.23-.53.23m5.3-5.55.18 1.34q.55-1.06 1.31-1.66.76-.61 1.79-.61.82 0 1.31.36l-.18 2.13q-.06.2-.17.29t-.29.09q-.17 0-.51-.06t-.66-.06q-.48 0-.84.14-.37.14-.66.4-.3.25-.52.62-.23.37-.42.84v7.27h-2.84v-11.8h1.66q.44 0 .61.16.18.15.23.55"/></svg>