<svg xmlns="http://www.w3.org/2000/svg" width="80" height="80" viewBox="0 0 80 80"><rect width="100%" height="100%" fill="#DDDDDD"/><path fill="#999999" d="M22.585 44.495q.7 0 1.25-.24.55-.23.93-.65.38-.43.58-1.03.21-.6.21-1.35v-7.79h2.42v7.79q0 1.16-.38 2.15-.37.98-1.07 1.7-.69.71-1.69 1.11t-2.25.4q-1.26 0-2.26-.4t-1.7-1.11q-.7-.72-1.07-1.7-.37-.99-.37-2.15v-7.79h2.42v7.78q0 .75.2 1.35t.58 1.03q.39.43.94.66.55.24 1.26.24m13.91-6.29-.5.81q-.09.14-.19.2t-.25.06q-.17 0-.35-.09-.19-.09-.43-.21-.24-.11-.55-.2t-.74-.09q-.65 0-1.03.28-.37.28-.37.73 0 .3.19.5.2.2.52.35.32.16.72.28.41.12.82.26.42.15.83.33.4.19.72.47t.52.68q.19.4.19.95 0 .67-.24 1.23-.24.57-.71.98-.46.4-1.15.63t-1.59.23q-.48 0-.93-.08-.46-.09-.88-.24-.41-.15-.77-.36-.35-.21-.62-.45l.51-.85q.1-.15.23-.23.14-.08.34-.08.21 0 .4.12.18.11.42.25.25.13.57.25.33.12.84.12.39 0 .68-.1.28-.09.46-.25.19-.15.27-.35.09-.2.09-.42 0-.32-.19-.53-.2-.21-.52-.36t-.73-.27l-.83-.27q-.43-.14-.84-.34-.41-.19-.73-.49t-.51-.73-.19-1.04q0-.57.22-1.08.23-.51.66-.9.44-.38 1.09-.61t1.51-.23q.95 0 1.74.32.78.31 1.3.82m3.53 2.56h4.19q0-.43-.12-.81-.12-.39-.36-.67-.25-.29-.62-.46t-.87-.17q-.96 0-1.52.55-.55.55-.7 1.56m5.67 1.34h-5.72q.06.71.26 1.23.19.52.52.86.32.33.77.5.44.17.98.17t.93-.13q.4-.13.69-.28t.51-.28q.22-.12.43-.12.28 0 .41.2l.64.81q-.37.43-.83.73-.46.29-.96.47-.49.17-1.01.24-.52.08-1.01.08-.96 0-1.79-.32-.82-.32-1.44-.95-.61-.63-.96-1.55t-.35-2.14q0-.94.31-1.77.3-.84.87-1.45.57-.62 1.4-.98.82-.36 1.86-.36.87 0 1.61.28t1.27.82q.53.53.83 1.31t.3 1.78q0 .5-.11.68-.11.17-.41.17m4.15-4.34.13 1.05q.43-.83 1.03-1.3.59-.48 1.4-.48.64 0 1.03.28l-.15 1.67q-.04.16-.13.23-.08.07-.23.07-.13 0-.4-.05-.26-.04-.51-.04-.37 0-.66.1-.29.11-.52.31-.23.21-.4.49-.18.29-.33.66v5.69h-2.22v-9.23h1.3q.34 0 .48.12.13.12.18.43m10.63 7.01h2.34v1.67h-7.2v-1.67h2.63v-7.58q0-.45.03-.93l-1.87 1.57q-.16.12-.32.15-.16.04-.3.01t-.25-.1q-.1-.06-.16-.14l-.7-.97 3.97-3.37h1.83z"/></svg>